HIERARCHY
ROOT root
{
	OFFSET 0.000000 0.000000 0.000000
	CHANNELS 6 Xposition Yposition Zposition Zrotation Yrotation Xrotation
	JOINT lhip
	{
		OFFSET 0.058581 -0.082280 -0.017664
		CHANNELS 3 Zrotation Yrotation Xrotation
		JOINT lknee
		{
			OFFSET 0.043451 -0.386469 0.008037
			CHANNELS 3 Zrotation Yrotation Xrotation
			JOINT lankle
			{
				OFFSET -0.014790 -0.426874 -0.037428
				CHANNELS 3 Zrotation Yrotation Xrotation
				JOINT ltoe
				{
					OFFSET 0.041054 -0.060286 0.122042
					CHANNELS 3 Zrotation Yrotation Xrotation
					End Site
					{
						OFFSET 0.000000 0.000000 0.000000
					}
				}
			}
		}
	}
	JOINT rhip
	{
		OFFSET -0.060310 -0.090513 -0.013543
		CHANNELS 3 Zrotation Yrotation Xrotation
		JOINT rknee
		{
			OFFSET -0.043257 -0.383688 -0.004843
			CHANNELS 3 Zrotation Yrotation Xrotation
			JOINT rankle
			{
				OFFSET 0.019056 -0.420046 -0.034562
				CHANNELS 3 Zrotation Yrotation Xrotation
				JOINT rtoe
				{
					OFFSET -0.034840 -0.062106 0.130323
					CHANNELS 3 Zrotation Yrotation Xrotation
					End Site
					{
						OFFSET 0.000000 0.000000 0.000000
					}
				}
			}
		}
	}
	JOINT lowerback
	{
		OFFSET 0.004439 0.124404 -0.038385
		CHANNELS 3 Zrotation Yrotation Xrotation
		JOINT upperback
		{
			OFFSET 0.004488 0.137956 0.026820
			CHANNELS 3 Zrotation Yrotation Xrotation
			JOINT chest
			{
				OFFSET -0.002265 0.056032 0.002855
				CHANNELS 3 Zrotation Yrotation Xrotation
				JOINT lowerneck
				{
					OFFSET -0.013390 0.211636 -0.033468
					CHANNELS 3 Zrotation Yrotation Xrotation
					JOINT upperneck
					{
						OFFSET 0.010113 0.088937 0.050410
						CHANNELS 3 Zrotation Yrotation Xrotation
						End Site
						{
							OFFSET 0.000000 0.000000 0.000000
						}
					}
				}
				JOINT lclavicle
				{
					OFFSET 0.071702 0.114000 -0.018898
					CHANNELS 3 Zrotation Yrotation Xrotation
					JOINT lshoulder
					{
						OFFSET 0.122921 0.045205 -0.019046
						CHANNELS 3 Zrotation Yrotation Xrotation
						JOINT lelbow
						{
							OFFSET 0.255332 -0.015649 -0.022946
							CHANNELS 3 Zrotation Yrotation Xrotation
							JOINT lwrist
							{
								OFFSET 0.265709 0.012698 -0.007375
								CHANNELS 3 Zrotation Yrotation Xrotation
								End Site
								{
									OFFSET 0.000000 0.000000 0.000000
								}
							}
						}
					}
				}
				JOINT rclavicle
				{
					OFFSET -0.082954 0.112472 -0.023707
					CHANNELS 3 Zrotation Yrotation Xrotation
					JOINT rshoulder
					{
						OFFSET -0.113228 0.046853 -0.008472
						CHANNELS 3 Zrotation Yrotation Xrotation
						JOINT relbow
						{
							OFFSET -0.260127 -0.014369 -0.031269
							CHANNELS 3 Zrotation Yrotation Xrotation
							JOINT rwrist
							{
								OFFSET -0.269108 0.006794 -0.006027
								CHANNELS 3 Zrotation Yrotation Xrotation
								End Site
								{
									OFFSET 0.000000 0.000000 0.000000
								}
							}
						}
					}
				}
			}
		}
	}
}
MOTION
Frames: 14
Frame Time: 0.033333
1.114967 -0.660862 0.886213 18.055739 -1.246976 84.058278 17.073200 1.880126 11.142118 -2.991532 -14.576166 30.036219 -4.600056 12.335756 -43.848480 0.000000 -0.000000 0.000000 -12.548711 -10.109985 -45.211656 6.119178 -3.770970 58.377561 5.800870 2.995722 -17.507830 0.000000 -0.000000 0.000000 0.364281 -4.782976 13.239708 -4.298654 9.349871 -0.745478 -2.154739 1.907196 -0.347705 8.292935 -15.454248 -5.012614 -5.929649 -23.093585 10.917760 -13.703194 12.530681 9.688255 -52.291968 11.702211 16.017336 -127.702640 -77.534722 148.187847 -8.033182 -19.279532 -45.851863 7.870811 23.202565 -4.489632 -8.043315 50.039600 -33.044499 -9.103905 6.099156 -16.009114 -0.375418 1.710281 23.675569 
1.116003 -0.663335 0.886015 18.019092 -0.985711 84.291546 16.873231 1.604851 11.111621 -2.674267 -14.543756 30.040975 -4.554315 13.263441 -43.870954 0.000000 -0.000000 0.000000 -12.579676 -9.966522 -45.193288 6.128230 -4.085783 58.342631 5.777371 3.014215 -17.704838 0.000000 -0.000000 0.000000 0.540122 -4.889840 12.934894 -4.171825 9.284576 -0.802831 -2.064654 1.892179 -0.328566 8.499852 -15.859275 -5.126425 -5.810458 -23.246664 10.952372 -13.618009 12.384134 9.792093 -52.386636 11.908248 16.129181 -129.102961 -77.791012 149.586943 -7.361846 -18.209884 -45.073842 7.763569 23.374379 -4.684321 -7.501953 50.096596 -32.675144 -9.016670 6.004616 -16.061292 -0.291811 1.633019 23.636878 
1.117065 -0.664959 0.885856 18.006724 -0.737172 84.255437 16.597372 1.215150 11.166796 -2.418370 -14.481472 30.553408 -4.365414 14.243350 -44.216050 0.000000 -0.000000 0.000000 -12.757772 -9.857666 -44.875672 6.350338 -4.454760 58.251004 5.952775 3.082619 -17.737800 0.000000 -0.000000 0.000000 0.428646 -4.877304 12.874825 -3.888298 9.137436 -0.671284 -1.896941 1.866411 -0.405136 8.893275 -16.258738 -5.581045 -5.811041 -23.694851 11.013481 -13.664787 12.235565 9.852655 -52.331830 11.904408 16.520604 -129.720065 -77.938238 150.423842 -6.002752 -17.559208 -44.535592 7.894722 23.570045 -4.907000 -7.402642 50.187588 -32.518928 -8.894329 5.406119 -16.340814 -0.573133 1.821158 23.701431 
1.116831 -0.664344 0.884390 17.945172 -0.185570 84.783158 16.776119 0.441316 10.074199 -2.583385 -13.797066 31.922996 -4.022293 15.107576 -44.625188 0.000000 -0.000000 0.000000 -12.574385 -9.326811 -45.374289 6.635731 -4.858505 58.133345 5.959215 2.536405 -17.760438 0.000000 -0.000000 0.000000 0.403718 -4.863793 12.532735 -3.457561 9.107832 -0.924287 -1.747365 1.861773 -0.230005 9.239058 -16.871623 -6.182826 -5.711929 -24.104464 11.084515 -13.525344 12.259974 9.831021 -52.414288 11.565455 16.884533 -127.725864 -77.979699 148.209340 -4.992039 -17.465090 -44.982296 7.801222 23.389456 -5.095946 -7.267104 50.181063 -32.202654 -8.874745 5.409263 -16.601871 -0.677999 1.879366 22.988736 
1.118850 -0.661950 0.882605 17.629238 0.167274 85.059595 16.364528 -0.227309 8.833432 -2.681076 -13.164062 34.375068 -3.722175 16.008794 -45.115127 0.000000 -0.000000 0.000000 -12.389151 -8.859796 -45.853299 6.962069 -4.707960 58.021114 6.063186 2.389581 -17.417472 0.000000 -0.000000 0.000000 0.653617 -4.776561 12.406969 -3.467081 9.123174 -0.927375 -1.784785 1.813319 -0.221198 9.488190 -17.567719 -6.548986 -5.471155 -24.550933 10.806885 -13.611921 12.209414 9.713749 -52.283685 11.407802 16.975324 -126.406060 -78.136861 146.740447 -5.729089 -17.126685 -44.207326 7.749435 23.373787 -5.009634 -7.629767 49.961687 -32.443230 -8.408283 5.345697 -17.567109 -1.876625 2.235941 21.531106 
1.121389 -0.656162 0.880259 17.153049 0.458170 85.290058 15.514305 -1.430455 6.730159 -3.208968 -12.676394 38.794066 -3.211132 17.051244 -45.348891 0.000000 -0.000000 0.000000 -12.311284 -7.940270 -46.549900 6.976127 -4.443435 57.909200 6.235690 2.122100 -16.734272 0.000000 -0.000000 0.000000 0.778660 -4.572002 12.485066 -3.418657 9.189710 -0.838414 -1.929946 1.875075 -0.199378 9.597353 -18.394807 -6.962438 -5.013869 -25.081259 10.411070 -13.809143 12.001598 9.425483 -52.056523 11.180588 17.442297 -126.877318 -78.494679 147.013781 -6.956700 -17.171967 -43.204398 7.365796 23.274274 -5.279272 -7.250058 49.539985 -31.840121 -9.123995 5.185504 -18.251675 -0.144731 1.068758 20.865595 
1.125188 -0.647293 0.877774 16.495638 0.794291 85.310480 14.307862 -2.904264 4.100898 -3.807430 -12.597139 44.690096 -2.842958 17.714368 -44.975187 0.000000 -0.000000 0.000000 -12.247155 -6.758663 -47.119441 6.801263 -4.004005 57.517703 6.780298 1.919875 -15.637006 0.000000 -0.000000 0.000000 0.796698 -4.135299 12.891492 -3.330291 9.275607 -0.719151 -1.988759 1.966715 -0.221015 9.827426 -19.185504 -7.170863 -4.255338 -25.735817 9.575649 -13.931534 11.655732 8.990297 -51.602147 10.913883 18.070453 -128.023153 -78.507074 148.206597 -8.683980 -17.113325 -42.022016 7.162174 23.201247 -5.297158 -7.274361 48.415920 -31.435407 -9.157059 6.139928 -20.433308 0.503723 0.067387 15.702845 
1.133340 -0.633791 0.874858 16.421962 0.944366 85.056914 12.187892 -5.044821 1.215083 -4.349545 -13.083144 51.114347 -2.511117 18.327069 -44.073927 0.000000 -0.000000 0.000000 -12.545925 -6.448344 -47.265016 6.470725 -3.110290 56.674396 7.701446 1.774179 -14.187900 0.000000 -0.000000 0.000000 1.274769 -3.975313 14.005695 -3.490507 8.895952 -1.057162 -2.207975 1.952890 -0.073783 9.842460 -20.318603 -7.206457 -3.345440 -26.166543 8.459009 -14.104659 11.101386 8.641778 -50.917910 10.355950 18.765815 -129.174471 -78.372990 148.755603 -8.678220 -16.966918 -42.159624 6.511511 23.021745 -5.367844 -6.782065 46.967012 -30.126596 -9.313147 8.789259 -22.051089 1.029497 -0.756073 10.719689 
1.142602 -0.620212 0.872065 14.405673 0.733770 84.330996 9.785532 -6.023137 0.290165 -5.133981 -13.293023 55.569256 -2.251925 18.650313 -43.643763 0.000000 -0.000000 0.000000 -12.444387 -4.823359 -47.448228 5.821485 -1.409254 55.621358 8.623951 1.854698 -12.477219 0.000000 -0.000000 0.000000 0.855807 -2.823239 14.814765 -3.441228 9.239550 -0.546784 -2.071323 1.964235 -0.439226 9.798609 -21.626245 -6.221109 -1.819874 -26.575996 6.417355 -14.051544 10.196902 8.353615 -49.875766 9.665196 19.421515 -131.417491 -78.120117 150.221180 -8.176400 -16.767592 -43.074763 6.437310 23.185605 -5.566584 -5.699933 45.454124 -27.776441 -10.356104 12.152400 -21.696790 2.391329 -1.415911 8.700721 
1.150313 -0.598861 0.867965 13.535894 1.613223 84.395066 9.344029 -7.485974 -2.158520 -6.427999 -13.866367 59.908347 -2.079160 17.818565 -43.463399 0.000000 -0.000000 0.000000 -12.206478 -3.226955 -47.852336 5.541329 -0.566183 53.303110 9.658715 0.753491 -9.989443 0.000000 -0.000000 0.000000 0.529550 -2.308128 15.308583 -2.624030 8.948569 -0.644363 -1.512138 1.738800 -0.249776 10.111809 -22.996027 -6.344421 -0.627148 -26.736181 5.782034 -13.533134 8.796643 7.786449 -49.108390 8.176781 20.083645 -137.316574 -77.884672 155.290427 -11.165226 -16.352432 -41.518129 5.281123 22.922593 -5.905165 -4.225035 43.755819 -25.579933 -12.007587 17.443302 -25.071598 7.354568 -2.911402 0.985547 
1.159766 -0.571946 0.865931 12.050390 2.425411 84.717386 9.015233 -8.450702 -4.064124 -7.293925 -14.411454 62.257448 -2.501993 16.234483 -44.238727 0.000000 -0.000000 0.000000 -11.877369 -1.014035 -48.144248 4.599683 0.562440 49.592490 11.042762 -0.474098 -6.769992 0.000000 -0.000000 0.000000 0.029188 -1.580096 15.311259 -1.662854 8.519229 -0.355910 -0.853201 1.133656 -0.320170 10.339363 -23.890119 -5.965385 0.439109 -27.117446 5.258054 -13.686684 6.947412 7.355357 -47.487631 5.483694 20.744506 -143.474195 -77.992774 160.232243 -12.516356 -17.217012 -40.769161 5.610332 22.457790 -6.575463 -2.368558 43.057510 -21.955446 -14.465463 25.379265 -27.925996 10.279044 -2.357191 -8.827452 
1.178836 -0.539525 0.870037 11.410970 2.228053 84.199946 6.254748 -9.282498 -4.507811 -6.684876 -15.325398 61.836455 -3.086842 15.664513 -45.558130 0.000000 -0.000000 0.000000 -12.158134 -0.960008 -46.127341 2.735478 2.733289 43.297639 13.520326 -1.237560 -2.082197 0.000000 -0.000000 0.000000 -0.692323 -1.599060 16.883189 -1.231946 6.467433 -0.579826 -0.358126 0.847558 -0.233460 10.835373 -24.481448 -5.521262 1.834328 -27.384407 4.603507 -13.986651 4.440779 6.691218 -46.225487 2.004779 20.806939 -147.043034 -78.285215 162.876171 -11.352774 -16.251946 -38.189082 6.108517 21.845861 -6.979498 -0.062513 42.224614 -17.979410 -19.069103 37.401776 -29.664621 10.899369 -1.433748 -13.303299 
1.198269 -0.503189 0.878500 9.839016 2.216565 83.755478 4.371408 -8.389230 -4.552075 -4.493737 -14.032316 58.556940 -2.684923 16.121948 -47.143793 0.000000 -0.000000 0.000000 -12.095183 -0.147537 -42.872944 0.350082 4.411873 33.621060 16.960440 -3.864960 1.657954 0.000000 -0.000000 0.000000 -1.945469 -1.453589 17.594158 -0.222875 4.611424 -0.280228 0.488149 0.331014 -0.085930 9.662291 -26.681538 -3.057363 4.068724 -26.491318 3.520318 -15.123220 1.988843 2.925297 -43.880565 -2.395193 22.418620 -138.618967 -79.231881 152.369908 -10.613028 -13.607518 -35.414851 6.019170 21.495481 -6.741097 2.203777 41.524053 -13.036015 -26.984605 49.521528 -36.051851 12.010836 0.633890 -18.931022 
1.221282 -0.463245 0.889089 8.232899 3.009802 84.281210 3.998995 -5.344977 -6.539828 -1.700849 -10.735655 54.479365 -1.988513 17.746668 -48.587395 0.000000 -0.000000 0.000000 -11.402418 -0.092273 -38.744874 -0.689044 6.078223 21.631660 16.835897 -2.251331 -2.087908 0.000000 -0.000000 0.000000 -1.901343 -1.791602 18.067151 0.661784 2.017127 -0.871519 1.292849 -0.790023 0.615988 8.534012 -27.804551 -1.202786 5.582544 -25.471251 2.722373 -14.956395 -2.119811 2.912149 -44.136366 -6.516311 21.794468 -133.892627 -80.659587 147.285059 -7.374858 -10.930214 -33.279224 4.243424 21.824641 -7.113675 4.877638 41.398671 -10.076444 -36.470309 61.866491 -43.191943 12.061577 3.687178 -27.867127 
